<?xml version="1.0" encoding="utf-8"?>
<!-- Generator: Adobe Illustrator 19.0.0, SVG Export Plug-In . SVG Version: 6.00 Build 0)  -->
<svg version="1.1" id="Layer_1" xmlns="http://www.w3.org/2000/svg" xmlns:xlink="http://www.w3.org/1999/xlink" x="0px" y="0px"
	 viewBox="-455 257 48 48" style="enable-background:new -455 257 48 48;" xml:space="preserve">
<style type="text/css">
	.st0{fill:#34495D;}
	.st1{fill:none;}
</style>
<path class="st0" d="M-423.4,285.5h-1.6l-0.6-0.5c2-2.3,3.1-5.2,3.1-8.5c0-7.2-5.8-13-13-13s-13,5.8-13,13s5.8,13,13,13
	c3.2,0,6.2-1.2,8.5-3.1l0.5,0.6v1.6l10,10l3-3L-423.4,285.5z M-435.4,285.5c-5,0-9-4-9-9s4-9,9-9s9,4,9,9S-430.4,285.5-435.4,285.5z
	"/>
<path class="st1" d="M-942,724h48v48h-48V724z"/>
</svg>
