<?xml version="1.0" encoding="utf-8"?>
<!-- Generator: Adobe Illustrator 19.0.0, SVG Export Plug-In . SVG Version: 6.00 Build 0)  -->
<svg version="1.1" id="Layer_1" xmlns="http://www.w3.org/2000/svg" xmlns:xlink="http://www.w3.org/1999/xlink" x="0px" y="0px"
	 viewBox="-455 257 48 48" style="enable-background:new -455 257 48 48;" xml:space="preserve">
<style type="text/css">
	.st0{fill:#34495D;}
	.st1{fill:none;}
</style>
<path class="st0" d="M-426.2,283.5h-0.9l-0.3-0.3c1.1-1.3,1.7-2.9,1.7-4.8c0-4-3.2-7.3-7.3-7.3c-4,0-7.3,3.2-7.3,7.3
	c0,4,3.2,7.3,7.3,7.3c1.8,0,3.5-0.7,4.8-1.7l0.3,0.3v0.9l5.6,5.6l1.7-1.7L-426.2,283.5z M-432.9,283.5c-2.8,0-5-2.2-5-5
	c0-2.8,2.2-5,5-5c2.8,0,5,2.2,5,5C-427.9,281.3-430.1,283.5-432.9,283.5z"/>
<path class="st1" d="M-942,724h48v48h-48V724z"/>
</svg>
